<?xml version="1.0" encoding="UTF-8"?><svg xmlns="http://www.w3.org/2000/svg" xmlns:xlink="http://www.w3.org/1999/xlink" height="66.4" preserveAspectRatio="xMidYMid meet" version="1.0" viewBox="12.7 13.1 72.7 66.4" width="72.7" zoomAndPan="magnify"><linearGradient gradientTransform="matrix(.9598 .3539 -.3967 1.0761 118.145 641.266)" gradientUnits="userSpaceOnUse" id="a" x1="-277.401" x2="-244.67" xlink:actuate="onLoad" xlink:show="other" xlink:type="simple" xmlns:xlink="http://www.w3.org/1999/xlink" y1="-483.349" y2="-450.929"><stop offset=".048" stop-color="#12c2e8" stop-opacity=".1"/><stop offset=".076" stop-color="#23bae8" stop-opacity=".147"/><stop offset=".193" stop-color="#689bea" stop-opacity=".343"/><stop offset=".291" stop-color="#9a84ec" stop-opacity=".507"/><stop offset=".365" stop-color="#b876ed" stop-opacity=".631"/><stop offset=".406" stop-color="#c471ed" stop-opacity=".7"/><stop offset="1" stop-color="#f64f59" stop-opacity=".3"/></linearGradient><path d="M82.476,57.25c-1.541,5.925-7.821,10.688-13.427,11.636c-4.89,0.827-5.313-1.915-11.504-1.808 c-7.899,0.137-9.989,4.65-15.645,3.521c-2.019-0.403-4.491-2.709-9.353-7.303c-6.631-6.266-9.995-9.487-12.344-13.814 c-2.771-5.104-5.103-9.397-3.835-13.887c1.068-3.784,4.121-5.679,20.609-13.534c17.819-8.49,19.976-9.004,23.047-8.862 c6.287,0.29,15.612,3.29,18.724,10.978c2.229,5.509-0.977,7.878,0.759,18.394C80.956,51.348,83.676,52.639,82.476,57.25z" fill="url(#a)"/><linearGradient gradientTransform="matrix(.9851 -.3631 .3887 1.0545 338.693 395.51)" gradientUnits="userSpaceOnUse" id="b" x1="-158.446" x2="-125.715" xlink:actuate="onLoad" xlink:show="other" xlink:type="simple" xmlns:xlink="http://www.w3.org/1999/xlink" y1="-392.728" y2="-360.309"><stop offset=".048" stop-color="#12c2e8" stop-opacity=".2"/><stop offset=".076" stop-color="#23bae8" stop-opacity=".223"/><stop offset=".193" stop-color="#689bea" stop-opacity=".321"/><stop offset=".291" stop-color="#9a84ec" stop-opacity=".403"/><stop offset=".365" stop-color="#b876ed" stop-opacity=".465"/><stop offset=".406" stop-color="#c471ed" stop-opacity=".5"/><stop offset="1" stop-color="#f64f59" stop-opacity=".5"/></linearGradient><path d="M82.814,38.992c2.646,5.387,0.808,13-2.982,17.352c-3.306,3.796-5.425,2.042-10.223,6.152 c-6.122,5.245-4.826,9.945-10.01,12.791c-1.851,1.017-5.295,0.921-12.108,0.687c-9.294-0.318-14.036-0.512-18.701-2.184 c-5.502-1.973-10.131-3.632-12.058-7.778c-1.624-3.495-0.457-6.885,7.393-23.433c8.483-17.884,9.845-19.668,12.352-21.563 c5.133-3.879,14.418-7.73,21.871-4.067c5.339,2.624,4.361,6.464,12.573,13.115C77.776,35.615,80.755,34.799,82.814,38.992z" fill="url(#b)"/><linearGradient gradientTransform="matrix(-.9958 -.3328 .3562 -1.0659 -39.889 -596.588)" gradientUnits="userSpaceOnUse" id="c" x1="-286.747" x2="-254.016" xlink:actuate="onLoad" xlink:show="other" xlink:type="simple" xmlns:xlink="http://www.w3.org/1999/xlink" y1="-535.401" y2="-502.982"><stop offset=".048" stop-color="#12c2e8" stop-opacity=".2"/><stop offset=".076" stop-color="#23bae8" stop-opacity=".223"/><stop offset=".193" stop-color="#689bea" stop-opacity=".321"/><stop offset=".291" stop-color="#9a84ec" stop-opacity=".403"/><stop offset=".365" stop-color="#b876ed" stop-opacity=".465"/><stop offset=".406" stop-color="#c471ed" stop-opacity=".5"/><stop offset="1" stop-color="#f64f59" stop-opacity=".2"/></linearGradient><path d="M13.749,36.4c1.304-5.858,7.5-10.648,13.179-11.674c4.954-0.895,5.51,1.799,11.824,1.593 c8.057-0.264,9.986-4.742,15.811-3.721c2.079,0.364,4.707,2.594,9.878,7.037c7.053,6.062,10.632,9.178,13.226,13.4 c3.06,4.98,5.634,9.17,4.544,13.609c-0.919,3.743-3.949,5.658-20.424,13.661c-17.805,8.648-19.983,9.189-23.125,9.1 c-6.431-0.184-16.085-2.985-19.609-10.503c-2.525-5.388,0.64-7.772-1.608-18.098C15.567,42.187,12.733,40.961,13.749,36.4z" fill="url(#c)"/></svg>