<?xml version="1.0" encoding="UTF-8" standalone="no"?><svg xmlns="http://www.w3.org/2000/svg" xmlns:xlink="http://www.w3.org/1999/xlink" fill="#000000" height="500.2" preserveAspectRatio="xMidYMid meet" version="1.1" viewBox="0.0 0.0 726.8 500.2" width="726.8" zoomAndPan="magnify">
 <defs>
  <clipPath id="clip1">
   <path d="m0 0h726.8v500.2h-726.8z"/>
  </clipPath>
 </defs>
 <g id="surface1">
  <g id="change1_1"><path d="m433.8 285.4v-197.9l2-1.898h262.4l3.5 274.7h-135.1v110.2l-106.7-110.2h-227.5v-74.9h201.4" fill="#4e65d9"/></g>
  <g id="change2_1"><path d="m106.4 281.1h-99.502l0.0004-275.5 430.2 0.0016v275.6h-241.8l-88.9 103.1v-103.2" fill="#f9f9fa"/></g>
  <g clip-path="url(#clip1)" id="change3_1">
   <path d="m234.2 194.9c0 3.1-2.5 5.6-5.6 5.6h-148.4c-3.098 0-5.598-2.5-5.598-5.6s2.5-5.6 5.597-5.6h148.4c3.1 0 5.6 2.5 5.6 5.6zm-159.5-56c0-3.1 2.5-5.6 5.602-5.6h283.6c3.1 0 5.6 2.5 5.6 5.6s-2.5 5.6-5.6 5.6h-283.7c-3.001-0.1-5.501-2.5-5.501-5.6zm0-56.002c0-3.097 2.5-5.597 5.602-5.597h283.6c3.1 0 5.6 2.5 5.6 5.597 0 3.102-2.5 5.602-5.6 5.602h-283.7c-3.001-0.102-5.501-2.5-5.501-5.602zm572 219.1c0 3.1-2.5 5.6-5.6 5.6h-168c-3.1 0-5.6-2.5-5.6-5.6s2.5-5.6 5.6-5.6h168c3.1 0 5.6 2.5 5.6 5.6zm-60.7 76.7c-3.1 0-5.6 2.5-5.6 5.6v96.5l-97.1-100.4c-1-1.1-2.5-1.7-4-1.7h-222v-92h178.4c3.1 0 5.6-2.5 5.6-5.6v-35.8h199.8c3.1 0 5.6-2.5 5.6-5.6s-2.5-5.6-5.6-5.6h-199.8v-47.6h199.8c3.1 0 5.6-2.5 5.6-5.6s-2.5-5.6-5.6-5.6h-199.8v-60.4h270.7l3.4 263.6h-129.4zm-392-103.1c-1.6 0-3.2 0.7-4.2 1.9l-79.1 91.8v-88.2c0-3.1-2.5-5.6-5.6-5.6h-93.998v-264.4l419.1 0.002v264.4h-236.2zm529.1-166.1c0-3-2.5-5.5-5.6-5.5h-276.2v-98.398c0-3.102-2.5-5.602-5.6-5.602h-430.1c-3.1 0-5.6 2.5-5.6 5.6016v275.6c0 3.1 2.5 5.6 5.6016 5.6h94v97.6c0 2.3 1.398 4.4 3.598 5.2 0.6 0.2 1.3 0.3 1.9 0.3 1.6 0 3.1-0.7 4.2-1.9l87.2-101.2h49.7v97.6c0 3.1 2.5 5.6 5.6 5.6h225.2l105 108.5c1.1 1.1 2.5 1.7 4 1.7 0.7 0 1.4-0.1 2.1-0.4 2.1-0.8 3.5-2.9 3.5-5.2v-104.8h129.6c1.5 0 2.9-0.6 4-1.7 1-1.1 1.6-2.5 1.6-4l-3.7-274.6" fill="#1b1b1b"/>
  </g>
 </g>
</svg>