<?xml version="1.0" encoding="UTF-8" standalone="no"?><svg xmlns="http://www.w3.org/2000/svg" xmlns:xlink="http://www.w3.org/1999/xlink" fill="#000000" height="500" preserveAspectRatio="xMidYMid meet" version="1.1" viewBox="-0.0 0.0 509.7 500.0" width="509.7" zoomAndPan="magnify">
 <defs>
  <clipPath id="clip1">
   <path d="m94 120h415.7v380h-415.7z"/>
  </clipPath>
 </defs>
 <g id="surface1">
  <g clip-path="url(#clip1)" id="change1_1">
   <path d="m116.9 341.3c122.3-0.2 244.7-0.4 367-0.6l25.8-220.4-415.5 2.4c7.6 72.8 15.2 145.7 22.7 218.6zm275 63.4c-26.3 0-47.6 21.3-47.6 47.6s21.3 47.6 47.6 47.6 47.6-21.3 47.6-47.6-21.2-47.6-47.6-47.6zm-132.2 47.7c0 26.3-21.3 47.6-47.6 47.6s-47.6-21.3-47.6-47.6 21.3-47.6 47.6-47.6 47.6 21.2 47.6 47.6" fill="#4e65d9"/>
  </g>
  <g id="change2_1"><path d="m345.3 444.6c-1-3.1-1.4-6.4-1.4-9.6 0-18.1 14.7-32.8 32.8-32.8 2.3 0 4.1 1.8 4.1 4.1s-1.8 4.1-4.1 4.1c-13.5 0-24.5 11-24.5 24.5 0 2.4 0.4 4.9 1.1 7.2 0.7 2.2-0.5 4.5-2.7 5.2-0.4 0.1-0.8 0.2-1.2 0.2-1.9 0-3.6-1.1-4.1-2.9zm-183.8-9.6c0-18.1 14.7-32.8 32.8-32.8 2.3 0 4.1 1.8 4.1 4.1s-1.8 4.1-4.1 4.1c-13.5 0-24.5 11-24.5 24.5 0 2.5 0.4 4.9 1.1 7.2 0.7 2.2-0.6 4.5-2.7 5.2-0.4 0.1-0.8 0.2-1.2 0.2-1.8 0-3.4-1.1-4-2.9-1.1-3.1-1.5-6.4-1.5-9.6zm305.9-225.3h-73l10.1-109.6 75.7-0.401zm-12 102l-70.5 0.1 8.7-93.9h72.8zm-309.7-210.2l8.9 108.1h-69.401l-11.199-107.7zm135.4 108.2l0.5-108.9 114.6-0.7-10.1 109.6zm0 8.2h104.2l-8.7 93.9-96 0.2zm-118.1-8.2l-9-108.2 119.3-0.7-0.5 108.9zm0.1 102.5l-67.299 0.1-9.801-94.4h69.3zm0.5-94.3h109.2l-0.4 94.1-101 0.2zm74.2 217.1c0 24-19.5 43.5-43.5 43.5s-43.5-19.5-43.5-43.5 19.5-43.5 43.5-43.5 43.5 19.5 43.5 43.5zm179.9 0c0 24-19.5 43.5-43.5 43.5s-43.5-19.5-43.5-43.5 19.5-43.5 43.5-43.5c24-0.1 43.5 19.5 43.5 43.5zm70.3-342.3c-0.8-0.898-2-1.199-3.1-1.398l-411.7 2.398-9.302-90c-0.199-2.0974-2-3.699-4.097-3.699h-55.699c-2.3012 0-4.102 1.8008-4.102 4.1016 0 2.2968 1.8008 4.0976 4.1016 4.0976h51.898l9.301 90 7.699 74.801 22.199 214.7c0.199 2.1 2 3.7 4.102 3.7h66.899c-14.3 9.2-23.8 25.3-23.8 43.5 0 28.6 23.2 51.8 51.8 51.8 28.5 0 51.8-23.2 51.8-51.8 0-18.2-9.5-34.3-23.8-43.5h124c-14.3 9.2-23.8 25.3-23.8 43.5 0 28.6 23.2 51.8 51.8 51.8s51.8-23.2 51.8-51.7c0-18.2-9.5-34.3-23.8-43.5h46.7c2.3 0 4.1-1.8 4.1-4.1s-1.8-4.1-4.1-4.1h-345.7l-6.501-62.6 362.4-0.6c2.1 0 3.9-1.6 4.1-3.7l25.8-220.5c0.2-1.099-0.2-2.298-1-3.201" fill="#1b1b1b"/></g>
 </g>
</svg>