<?xml version="1.0" encoding="UTF-8" standalone="no"?><svg xmlns="http://www.w3.org/2000/svg" xmlns:xlink="http://www.w3.org/1999/xlink" fill="#000000" height="500" preserveAspectRatio="xMidYMid meet" version="1.1" viewBox="0.0 -0.0 612.7 500.0" width="612.7" zoomAndPan="magnify">
 <defs>
  <clipPath id="clip1">
   <path d="m14 48h598.7v452h-598.7z"/>
  </clipPath>
 </defs>
 <g id="surface1">
  <g clip-path="url(#clip1)" id="change1_1">
   <path d="m475.8 72.602c0-6.903-5.6-12.5-12.5-12.5s-12.5 5.597-12.5 12.5c0 6.898 5.6 12.5 12.5 12.5s12.5-5.602 12.5-12.5zm-97.4 0c0-6.903-5.6-12.5-12.5-12.5s-12.5 5.597-12.5 12.5c0 6.898 5.6 12.5 12.5 12.5s12.5-5.602 12.5-12.5zm-97.7 0c0-6.903-5.6-12.5-12.5-12.5s-12.5 5.597-12.5 12.5c0 6.898 5.6 12.5 12.5 12.5s12.5-5.602 12.5-12.5zm-96.6 0c0-6.903-5.6-12.5-12.5-12.5s-12.5 5.597-12.5 12.5c0 6.898 5.6 12.5 12.5 12.5 6.8 0 12.5-5.602 12.5-12.5zm-96.1 0c0-7-5.602-12.602-12.602-12.602-6.898 0-12.5 5.602-12.5 12.5s5.602 12.5 12.5 12.5c7 0.102 12.602-5.5 12.602-12.398zm458.9-24v292.7l-100.3 100.3h-432.1v-393zm65.8 58.298v393.1h-567.4l0.001-44.3h519.4v-348.8h48" fill="#4e65d9"/>
  </g>
  <g id="change2_1"><path d="m444.5 368.9h-372.2l0.001-188.9h416.8v149.4 7.4" fill="#eaedfb"/></g>
  <g id="change3_1"><path d="m567 482.3c0 1.1-0.9 1.9-1.9 1.9h-526.9c-1.098 0-1.899-0.9-1.899-1.9 0-1.1 0.898-1.9 1.898-1.9h526.8c1.1 0 2 0.9 2 1.9zm0-422.3v394.5c0 1.1-0.9 1.9-1.9 1.9h-526.9c-1.098 0-1.899-0.9-1.899-1.9 0-1.1 0.898-1.9 1.898-1.9h524.9v-392.6c0-1.102 0.9-1.898 1.9-1.898 1.1 0 2 0.796 2 1.898zm-172.2 241h81.8v26.6c0 0.2 0.1 0.4 0.1 0.6l-42.8-0.6v30.1h-39.2v-56.7zm-252.6-70.1h-78.399v-58.2h78.399zm252.6 3.9h81.8v62.3h-81.8zm-80.1 0h76.3v62.3h-76.3zm-80.8 0h77v62.3h-77zm-87.9 0h84v62.3h-84zm-82.199 0h78.399v62.3h-78.399zm412.9-62v58.2h-81.8v-58.2zm-85.7 0v58.2h-76.3v-58.2zm-80.2 0v58.2h-77v-58.2zm-80.8 0v58.2h-84v-58.2zm-166.2 184.9v-56.7h78.399v56.8zm82.199 0v-56.7h84v56.8zm87.9 0v-56.7h77v56.8zm80.8 0v-56.7h76.3v56.8zm-310.8 69.7v-312.5h528.6v213.3l-0.8 0.8-51.2-0.7c0.1-0.2 0.1-0.4 0.1-0.6v-156.9c0-1.1-0.9-1.9-1.9-1.9h-416.8c-1.099 0-1.9 0.9-1.9 1.9v188.9c0 1.1 0.898 1.9 1.898 1.9h372.1v65l-0.8 0.8zm69.602-389.1v28.301c0 1.097 0.898 1.898 1.898 1.898s1.903-0.898 1.903-1.898v-28.301h92.199v28.301c0 1.097 0.9 1.898 1.9 1.898 1.1 0 1.9-0.898 1.9-1.898v-28.301h92.8v28.301c0 1.097 0.9 1.898 1.9 1.898s1.9-0.898 1.9-1.898v-28.301h93.8v28.301c0 1.097 0.9 1.898 1.9 1.898s1.9-0.898 1.9-1.898v-28.301h93.6v28.301c0 1.097 0.9 1.898 1.9 1.898s1.9-0.898 1.9-1.898v-28.301h67.2v72.699h-528.2l-0.0016-72.699zm361.9 392.4l100.4-100.4c0.4-0.4 0.6-0.9 0.6-1.4v-292.6c0-1.101-0.9-1.902-1.9-1.902h-69.1v-32.5c0-1.0972-0.9-1.898-1.9-1.898s-1.9 0.89844-1.9 1.8984v32.403h-93.6v-32.403c0-1.0972-0.9-1.898-1.9-1.898s-1.9 0.89844-1.9 1.8984v32.403h-93.8v-32.403c0-1.0972-0.9-1.898-1.9-1.898s-1.9 0.89844-1.9 1.8984v32.403h-92.8v-32.403c0-1.0972-0.9-1.898-1.9-1.898-1.1 0-1.9 0.89844-1.9 1.8984v32.403h-92.602v-32.403c0-1.0972-0.898-1.898-1.898-1.898s-1.898 0.89844-1.898 1.8984v32.403h-71.704c-1.0972 0-1.898 0.898-1.898 1.898v393.1c0 1.1 0.89844 1.9 1.8984 1.9h432.1c0.5 0.1 1-0.1 1.4-0.5" fill="#1b1b1b"/></g>
 </g>
</svg>