<?xml version="1.0" encoding="UTF-8" standalone="no"?><svg xmlns="http://www.w3.org/2000/svg" xmlns:xlink="http://www.w3.org/1999/xlink" fill="#000000" height="500" preserveAspectRatio="xMidYMid meet" version="1.1" viewBox="0.0 0.0 508.9 500.0" width="508.9" zoomAndPan="magnify">
 <defs>
  <clipPath id="clip1">
   <path d="m0 0h508.9v500h-508.9z"/>
  </clipPath>
 </defs>
 <g id="surface1">
  <g clip-path="url(#clip1)" id="change1_1">
   <path d="m293 121.1h215.9v378.9h-292.9v-121.1h-216v-287.8l60.5-91.1h232.5v121.1" fill="#4e65d9"/>
  </g>
  <g id="change2_1"><path d="m114.6 330.7h-34.1v34.1h34.1zm0-67.5h-34.1v34.1h34.1zm0-67.5h-34.1v34.1h34.1zm0-64.4h-34.1v34.1h34.1zm191.1 290.3h-34.1v34.1h34.1zm0-67.4h-34.1v34.1h34.1zm0-67.5h-34.1v34.1h34.1zm0-30.4h-34.1v-34.1h34.1v34.1" fill="#eaedfb"/></g>
  <g id="change3_1"><path d="m183.5 336.3h-57.3c-0.7 0-1.2 0.5-1.2 1.2s0.5 1.2 1.2 1.2h57.3c0.7 0 1.2-0.5 1.2-1.2s-0.6-1.2-1.2-1.2zm3.7-67.5h-57.3c-0.7 0-1.2 0.5-1.2 1.2s0.5 1.2 1.2 1.2h57.3c0.7 0 1.2-0.5 1.2-1.2-0.1-0.7-0.6-1.2-1.2-1.2zm1-66.9h-57.3c-0.7 0-1.2 0.5-1.2 1.2s0.5 1.2 1.2 1.2h57.3c0.7 0 1.2-0.5 1.2-1.2s-0.6-1.2-1.2-1.2zm-57.3-62.6h28.1c0.7 0 1.2-0.5 1.2-1.2s-0.5-1.2-1.2-1.2h-28.1c-0.7 0-1.2 0.5-1.2 1.2 0 0.6 0.5 1.2 1.2 1.2zm91.4-2.4h-51.7c-0.7 0-1.2 0.5-1.2 1.2s0.5 1.2 1.2 1.2h51.7c0.7 0 1.2-0.5 1.2-1.2-0.1-0.7-0.6-1.2-1.2-1.2zm-86-65.4l113.5 1.699c0.6 0 1.2-0.5 1.2-1.199s-0.5-1.199-1.2-1.199l-113.5-1.699c-0.7 0-1.2 0.5-1.2 1.199 0.1 0.699 0.6 1.199 1.2 1.199zm42.6-18.199h71c0.7 0 1.2-0.5 1.2-1.199 0-0.704-0.5-1.204-1.2-1.204h-71c-0.7 0-1.2 0.5-1.2 1.204 0 0.699 0.6 1.199 1.2 1.199zm-102.9 300h31.7v-31.7h-31.7zm-2.301-34.1h36.401v36.4h-36.401zm2.301-33.4h31.7v-31.7h-31.7zm-2.301-34h36.401v36.4h-36.401zm2.301-33.4h31.7v-31.7h-31.7zm-2.301-34.1h36.401v36.4h-36.401zm2.301-30.4h31.7v-31.7h-31.7zm-2.301-34h36.401v36.4h-36.401zm277.1 307.3h-28.1c-0.7 0-1.2 0.5-1.2 1.2s0.5 1.2 1.2 1.2h28.1c0.7 0 1.2-0.5 1.2-1.2s-0.5-1.2-1.2-1.2zm53.7 0h-42c-0.7 0-1.2 0.5-1.2 1.2s0.5 1.2 1.2 1.2h42c0.7 0 1.2-0.5 1.2-1.2s-0.6-1.2-1.2-1.2zm-53.7-67.4h-28.1c-0.7 0-1.2 0.5-1.2 1.2s0.5 1.2 1.2 1.2h28.1c0.7 0 1.2-0.5 1.2-1.2s-0.5-1.2-1.2-1.2zm74.5 0h-62.9c-0.7 0-1.2 0.5-1.2 1.2s0.5 1.2 1.2 1.2h62.9c0.7 0 1.2-0.5 1.2-1.2s-0.5-1.2-1.2-1.2zm-74.5-67.5h-28.1c-0.7 0-1.2 0.5-1.2 1.2s0.5 1.2 1.2 1.2h28.1c0.7 0 1.2-0.5 1.2-1.2s-0.5-1.2-1.2-1.2zm103.1 0h-91.4c-0.7 0-1.2 0.5-1.2 1.2s0.5 1.2 1.2 1.2h91.4c0.7 0 1.2-0.5 1.2-1.2s-0.6-1.2-1.2-1.2zm-103.1-66.8h-28.1c-0.7 0-1.2 0.5-1.2 1.2s0.5 1.2 1.2 1.2h28.1c0.7 0 1.2-0.5 1.2-1.2s-0.5-1.2-1.2-1.2zm103.1 0h-91.4c-0.7 0-1.2 0.5-1.2 1.2s0.5 1.2 1.2 1.2h91.4c0.7 0 1.2-0.5 1.2-1.2s-0.6-1.2-1.2-1.2zm-20.5-65.3c0.6 0 1.2-0.5 1.2-1.2s-0.5-1.2-1.2-1.2l-113.5-1.7c-0.6 0-1.2 0.5-1.2 1.2s0.5 1.2 1.2 1.2zm-70.9-17.5h71c0.7 0 1.2-0.5 1.2-1.2s-0.5-1.2-1.2-1.2h-71c-0.7 0-1.2 0.5-1.2 1.2s0.5 1.2 1.2 1.2zm-95.4 301.6h31.7v-31.7h-31.7zm-2.3-34.1h36.4v36.4h-36.4zm2.3-33.4h31.7v-31.7h-31.7zm-2.3-34.1h36.4v36.4h-36.4zm2.3-33.4h31.7v-31.7h-31.7zm-2.3-34h36.4v36.4h-36.4zm2.3-30.4h31.7v-31.7h-31.7zm-2.3-34h36.4v36.4h-36.4zm-37 114.6c-0.7 0-1.2 0.5-1.2 1.2v93.7c0 0.7 0.5 1.2 1.2 1.2s1.2-0.5 1.2-1.2v-93.7c0-0.6-0.6-1.2-1.2-1.2zm261.5-223.3h-23.5v65.5c0 0.7-0.5 1.2-1.2 1.2s-1.2-0.5-1.2-1.2v-65.5h-204.7l-0.6 1v89.2l-59-0.2-0.2 0.4v286.3h27.9v-35.7c0-0.7 0.5-1.2 1.2-1.2s1.2 0.5 1.2 1.2v35.7h260.3v-376.7zm-292.9 292v-202c0-0.2 0.1-0.5 0.2-0.7l60.5-91.1c0.2-0.3 0.6-0.502 1-0.502h48.1v-82.296h-23.5v65.5c0 0.699-0.5 1.199-1.2 1.199s-1.2-0.5-1.2-1.199v-65.5h-204.8l-0.602 1v89.198l-59-0.2-0.199 0.4v286.3h27.903v-35.7c0-0.7 0.5-1.2 1.199-1.2s1.199 0.5 1.199 1.2v35.7zm295.3-293.2v379c0 0.7-0.5 1.2-1.2 1.2h-292.9c-0.7 0-1.2-0.5-1.2-1.2v-83.4h-182c-0.701 0-1.201-0.5-1.201-1.2v-287.9c0-0.2 0.102-0.5 0.199-0.7l60.5-91.101c0.204-0.301 0.602-0.5 1-0.5h232.5c0.7 0 1.2 0.5 1.2 1.199v83.5h182c0.5 0 1.1 0.502 1.1 1.102zm-445.9 141.1v93.7c0 0.7-0.5 1.2-1.199 1.2-0.704 0-1.204-0.5-1.204-1.2v-93.7c0-0.7 0.5-1.2 1.204-1.2 0.699 0 1.199 0.5 1.199 1.2" fill="#1b1b1b"/></g>
 </g>
</svg>